<?xml version="1.0" standalone="no"?>
<!DOCTYPE svg PUBLIC "-//W3C//DTD SVG 20010904//EN"
 "http://www.w3.org/TR/2001/REC-SVG-20010904/DTD/svg10.dtd">
<svg version="1.0" xmlns="http://www.w3.org/2000/svg"
 width="32.000000pt" height="32.000000pt" viewBox="0 0 32.000000 32.000000"
 preserveAspectRatio="xMidYMid meet">

<g transform="translate(0.000000,32.000000) scale(0.100000,-0.100000)"
fill="#000000" stroke="none">
<path d="M155 300 c-3 -5 6 -37 20 -72 14 -34 23 -68 21 -75 -6 -15 -86 -18
-86 -3 0 19 32 90 41 90 5 0 6 7 2 16 -7 19 -17 9 -31 -31 -5 -16 -19 -55 -31
-85 -15 -40 -16 -49 -5 -33 13 18 26 23 60 23 23 0 45 4 48 9 3 5 15 7 26 4
26 -7 26 -2 -11 90 -30 74 -41 88 -54 67z"/>
<path d="M235 83 c3 -15 7 -32 8 -37 1 -5 -9 -13 -23 -17 -17 -5 -5 -7 40 -8
59 -1 63 0 44 14 -12 8 -27 28 -34 45 -16 39 -45 42 -35 3z"/>
<path d="M75 30 c-4 -6 3 -10 14 -10 25 0 27 6 6 13 -8 4 -17 2 -20 -3z"/>
</g>
</svg>
